<?xml version="1.0" encoding="UTF-8" standalone="no"?>
<!-- Created with Inkscape (http://www.inkscape.org/) -->

<svg
   width="75.085152mm"
   height="181.89885mm"
   viewBox="0 0 75.085152 181.89885"
   version="1.1"
   id="svg1"
   xml:space="preserve"
   inkscape:version="1.3 (0e150ed6c4, 2023-07-21)"
   sodipodi:docname="forkfull_logo.svg"
   xmlns:inkscape="http://www.inkscape.org/namespaces/inkscape"
   xmlns:sodipodi="http://sodipodi.sourceforge.net/DTD/sodipodi-0.dtd"
   xmlns="http://www.w3.org/2000/svg"
   xmlns:svg="http://www.w3.org/2000/svg"><sodipodi:namedview
     id="namedview1"
     pagecolor="#ffffff"
     bordercolor="#000000"
     borderopacity="0.25"
     inkscape:showpageshadow="2"
     inkscape:pageopacity="0.0"
     inkscape:pagecheckerboard="0"
     inkscape:deskcolor="#d1d1d1"
     inkscape:document-units="mm"
     inkscape:zoom="2.9255612"
     inkscape:cx="215.00149"
     inkscape:cy="610.31026"
     inkscape:window-width="1920"
     inkscape:window-height="1017"
     inkscape:window-x="-8"
     inkscape:window-y="-8"
     inkscape:window-maximized="1"
     inkscape:current-layer="layer1" /><defs
     id="defs1" /><g
     inkscape:label="Layer 1"
     inkscape:groupmode="layer"
     id="layer1"
     transform="translate(-66.515863,-49.321023)"><path
       id="path68"
       style="fill:#000000"
       d="m 120.19139,49.325902 c -1.0205,0.05849 -2.12552,0.64484 -2.94917,1.87017 -0.74306,1.105451 -0.8579,3.451756 -1.21595,24.792286 -0.25074,14.944475 -2.9963,18.252332 -14.27562,17.197916 -8.513942,-0.795903 -9.1776,-2.520591 -9.436628,-24.522017 -0.217396,-18.464967 -0.118726,-17.562653 -2.047937,-18.738908 -2.17271,-1.324718 -5.724073,0.250388 -4.979541,2.208651 0.14455,0.380199 0.392223,2.391037 0.549837,4.467944 0.157614,2.076908 0.39965,4.37131 0.538468,5.098914 0.138818,0.727601 0.367373,6.264029 0.507463,12.303125 0.2851,12.29035 0.320246,12.548174 2.227254,16.345255 2.653658,5.283752 6.024209,7.81126 11.935704,8.949841 4.97232,0.957701 12.70039,-1.380638 15.12673,-4.576981 0.30976,-0.408065 1.2934,-1.692357 2.18539,-2.85409 2.7818,-3.623012 2.8543,-4.025341 3.04064,-16.816027 0.15158,-10.404347 0.66234,-17.952143 1.49759,-22.1356 0.463,-2.319012 -1.00339,-3.687963 -2.70423,-3.590479 z m -15.83004,0.0801 c -0.61428,-0.07813 -1.24277,0.0657 -1.86552,0.433565 -1.49474,0.882951 -1.44794,0.215975 -1.42214,20.173962 0.0258,19.949634 -0.0297,19.204167 1.50999,20.142957 1.47167,0.897336 4.18148,0.224662 4.62504,-1.14825 0.83378,-2.580754 -0.13779,-37.854654 -1.06609,-38.705131 -0.56662,-0.519142 -1.16701,-0.818977 -1.78128,-0.897103 z M 80.466683,67.592488 c -2.33396,-0.332137 -3.978054,10.23266 -2.701127,18.704801 1.542922,10.236978 6.763835,17.967971 14.879195,22.032761 2.976553,1.4909 2.976562,1.49103 2.976562,7.38973 0,5.89873 -2.35e-4,5.89871 2.445329,5.76399 3.357068,-0.18495 3.401568,-0.26453 3.754808,-6.73395 0.28554,-5.22936 0.39793,-5.95105 0.8537,-5.49528 0.30711,0.30711 0.65855,0.34332 1.61385,0.16485 1.57309,-0.29389 1.53937,-0.36988 1.76268,3.96255 0.4088,7.93116 0.54672,8.24704 3.60289,8.24704 2.83305,0 2.86518,-0.0743 3.00033,-6.97218 0.0675,-3.44483 0.17097,-4.51519 0.4563,-4.70772 0.2031,-0.13705 1.30117,-0.72585 2.44016,-1.30897 2.33349,-1.19466 6.05967,-4.26818 7.05745,-5.82135 0.36381,-0.5663 0.7988,-1.03046 0.96687,-1.03146 0.16807,-0.001 0.6108,-0.52292 0.98392,-1.15962 0.37313,-0.636689 0.90301,-1.216593 1.17719,-1.288293 0.35688,-0.09333 0.63658,-0.639207 0.98392,-1.922363 0.33909,-1.252693 0.62977,-1.830726 0.96635,-1.918746 0.33179,-0.08676 0.6575,-0.712881 1.04696,-2.012797 0.31092,-1.037776 0.83365,-2.423315 1.16117,-3.079399 2.59017,-5.188597 0.85775,-21.949448 -2.22829,-21.558891 -3.01229,0.381232 -3.1311,0.769615 -2.71559,8.853207 0.48577,9.450287 -0.0708,12.439651 -3.31763,17.828886 C 113.36801,109.24893 92.660607,108.2059 85.69272,93.719058 83.618453,89.406482 83.108502,86.439719 82.939917,77.708149 82.77331,69.079026 82.80293,69.227816 80.942106,67.808495 80.78104,67.685644 80.62228,67.61463 80.466683,67.592488 Z M 69.807902,106.48882 c -0.809712,0.0929 -1.614429,0.6995 -2.242241,1.93012 -1.29015,2.52889 -2.087593,18.75991 8.770527,24.09723 4.0163,1.97421 5.206319,2.14716 13.19661,1.91617 5.985829,-0.17305 5.985962,-0.17318 5.87251,3.82043 -0.113452,3.99363 -0.113582,3.99399 2.498555,4.08089 1.436678,0.0478 -2.114752,0.11161 -7.892024,0.14211 -14.498594,0.0764 -16.957597,0.78967 -20.256128,5.87613 -4.475645,6.90159 -4.280415,14.68663 0.376204,15.0058 2.69705,0.18486 2.860846,0.0346 3.100586,-2.84014 0.720274,-8.6367 3.44463,-10.44773 15.448153,-10.26914 6.866233,0.10216 6.428792,-2.113 4.565096,23.1066 -1.246958,16.87389 -1.69006,21.2777 -3.444751,34.26355 -1.77311,13.12211 1.56697,20.51303 10.413831,23.0451 4.81765,1.37886 10.07437,0.14209 13.32064,-3.13417 1.40318,-1.12621 7.09027,-6.473 5.24877,-17.92656 -1.40257,-8.72349 -1.95776,-13.69431 -2.52594,-22.62187 -0.15282,-2.4011 -0.45122,-6.09203 -0.66353,-8.20209 -0.8407,-8.35526 -1.19037,-12.58189 -1.57561,-19.05 -0.22102,-3.71075 -0.45368,-7.3733 -0.51728,-8.13904 -0.11567,-1.39222 -0.11609,-1.39227 3.23856,-1.19217 19.81884,1.18216 27.35102,-0.66189 24.14943,-5.9123 -1.17909,-1.93365 -1.34275,-1.9544 -15.4156,-1.9544 -12.57761,0 -12.57717,0 -12.75943,-3.10886 -0.10024,-1.70986 -0.24978,-3.54173 -0.33228,-4.07055 -0.15006,-0.96144 -0.15037,-0.96144 12.82196,-0.92604 14.55734,0.0398 13.63221,0.15941 15.06523,-1.94614 1.06562,-1.56572 0.1739,-3.5028 -2.04639,-4.4452 -1.17495,-0.49873 -12.10498,-0.83152 -17.73121,-0.54002 -5.69202,0.29491 -38.324552,2.3145 -42.412916,-1.95027 -1.85965,-1.93989 -2.73414,-3.57951 -4.265889,-8.54522 -0.227757,-1.45518 -0.41462,-3.63168 -0.415478,-4.83691 -0.0026,-3.59534 -1.808595,-5.87751 -3.589962,-5.67304 z m 68.623198,3.49695 c -0.99541,0.0304 -2.03113,0.82661 -2.9223,2.3828 -1.5609,2.7257 -2.30708,2.99804 -9.01702,3.29282 -4.40196,0.19339 -5.17074,0.80123 -5.17074,2.64866 0,0.96461 0.35002,2.63479 5.03431,2.8063 2.23237,0.0817 4.61377,0.17104 5.29219,0.19844 6.51608,0.26321 10.88741,-4.75264 9.4635,-9.11727 -0.51918,-1.59142 -1.68452,-2.24215 -2.67994,-2.21175 z m -34.02066,23.65178 c 1.57462,0.17826 3.11712,1.83288 3.11712,4.79247 0,4.10101 1e-5,4.10125 -2.3151,4.05505 -4.20362,-0.0839 -4.64355,-0.16646 -4.43849,-0.83044 0.0983,-0.31834 0.24498,-2.09682 0.32608,-3.95221 0.12876,-2.94503 1.73577,-4.24313 3.31039,-4.06487 z m -0.48162,16.78037 c 3.55444,0.0963 3.18299,-0.52375 3.59306,6.00377 0.49485,7.87693 0.82844,12.41137 1.47846,20.10833 0.35639,4.2201 0.94545,11.30436 1.30948,15.74271 0.667,8.13254 1.35349,13.84923 2.15956,17.99167 1.60444,8.24522 -0.54171,13.33454 -6.26473,14.85749 -4.69717,1.24995 -8.915433,-1.17461 -10.565767,-6.07353 -0.714776,-2.12179 -0.693025,-3.98441 0.100253,-8.59483 0.99031,-5.75552 2.052116,-16.17223 3.188435,-31.27767 0.218939,-2.91042 0.577737,-7.13714 0.797368,-9.39271 0.888251,-9.12228 1.188021,-13.22468 1.187521,-16.25999 -5.2e-4,-3.1871 -3.5e-4,-3.18694 3.01636,-3.10524 z m 26.41027,8.84856 c -3.24843,0.0471 -6.67969,0.21403 -7.321,0.45785 -1.50146,0.57085 -2.18029,3.17338 -1.22473,4.69532 0.53629,0.85414 0.53588,0.85414 5.53144,0.92604 9.54732,0.13738 10.729,-0.14709 11.29337,-2.71663 0.22023,-1.00271 -0.55356,-2.4971 -2.0557,-3.1011 -0.23436,-0.0942 -2.97496,-0.30862 -6.22339,-0.26148 z m 5.9309,12.41888 c -3.7075,-0.19621 -5.83376,5.52414 -1.91667,7.91269 1.95158,1.19005 4.26277,0.44137 5.32215,-1.72392 1.17854,-2.40884 0.52535,-4.56395 -1.73271,-5.71593 -0.58117,-0.29649 -1.14312,-0.44481 -1.67277,-0.47284 z m -64.704056,0.0724 c -1.040224,-0.002 -2.123874,0.45857 -3.021004,1.45159 -1.918864,2.12393 -1.169619,5.29132 1.544092,6.52776 2.292725,1.04464 5.739763,-1.87513 5.250325,-4.44727 -0.426902,-2.24351 -2.039707,-3.52949 -3.773413,-3.53208 z m 32.872926,38.24727 c -2.58495,-0.13106 -5.218425,1.89815 -4.724256,5.19348 0.832166,5.54927 9.076796,4.96221 9.130196,-0.65008 -0.1929,-1.29742 -0.12631,-1.02829 -0.49149,-1.78132 -0.82992,-1.82708 -2.36351,-2.68347 -3.91449,-2.76211 z"
       sodipodi:nodetypes="ssssssssssssssssssssssssssssssssssssssssssssssscsssssssssscsssssssssssssssssccssssccssssssssssssssssssssssssssssssssssssssssscsssccscscc" /></g></svg>
